<svg width="224" height="224" viewBox="0 0 224 224" fill="none" xmlns="http://www.w3.org/2000/svg"><path fill="url(#a)" d="M0 0h224v224H0z"/><path fill-rule="evenodd" clip-rule="evenodd" d="M3.869 46.667C30.324 19.402 68.457 2.333 110.999 2.333c42.543 0 80.795 17.18 107.131 44.334L110.999 224 3.869 46.667zm29.792 3.99L111 178.78l77.339-128.123C166.77 33.92 139.361 24.5 111 24.5c-28.362 0-55.77 9.42-77.34 26.157zm47.547 29.26c9.872 0 17.875-7.444 17.875-16.625 0-9.182-8.003-16.625-17.875-16.625S63.333 54.11 63.333 63.292c0 9.181 8.003 16.625 17.875 16.625zm47.667 38.791c0 9.182-8.003 16.625-17.875 16.625s-17.875-7.443-17.875-16.625c0-9.181 8.003-16.625 17.875-16.625s17.875 7.444 17.875 16.625z" fill="url(#b)"/><defs><linearGradient id="a" x1="112" x2="112" y2="224" gradientUnits="userSpaceOnUse"><stop offset=".15" stop-color="#D93025"/><stop offset="1" stop-color="#790D0D"/></linearGradient><linearGradient id="b" x1="110.999" y1="2.333" x2="110.999" y2="224" gradientUnits="userSpaceOnUse"><stop stop-color="#FBBC04"/><stop offset="1" stop-color="#EA8600"/></linearGradient></defs></svg>